:SAMPLES-PER-SECOND 30
:FULLY-SPECIFIED
:DEGREES
1471
root  -4.13768 38.9276 -2.26702 179.612 -88.2673 175.322
RightUpLeg  7.73212 -18.1896 -3.74781
RightLeg  23.1858 -4.94775 -2.33833
RightFoot  -23.9079 0.0776187 2.17483
RightToes  0.00048216 0.542163 -0.142577
Spine  20.6007 0.378079 7.54502
Spine1  11.0099 3.04389 -4.65205
HEad  29.1624 19.0618 -5.54956
LeftShoulder1  9.26541 -13.4353 -47.7438
LeftArm  -13.155 24.3554 -29.0031
LeftForeArm  28.123 -23.4819 -3.56134
LeftHand  -0.25398 0.0180481 5.50724
RightShoulder  5.41273 9.10021 36.9381
RightArm  0.701386 -14.3964 35.8313
RightForeArm  -9.91956 27.3928 6.41244
RightHand  -1.44533 2.85926 -20.4293
LeftUpLeg  -20.3996 7.23004 -1.21376
LeftLeg  4.8516 12.701 -4.16939
LeftFoot  -0.860406 0.869803 -9.40523
LeftToes  1.06244e-005 4.65855e-005 -8.18506e-006
1472
root  -3.39276 39.26 -2.27344 -118.598 -88.9988 113.893
RightUpLeg  6.80111 -17.9402 -4.3311
RightLeg  21.7473 -6.58177 -1.99316
RightFoot  -22.0868 0.0231305 1.84604
RightToes  0.00048216 0.542163 -0.142577
Spine  19.6103 0.275888 5.62789
Spine1  11.2762 2.31534 -3.86656
HEad  30.2977 17.8803 -4.29281
LeftShoulder1  9.07348 -13.339 -47.0088
LeftArm  -12.5414 24.5846 -28.9853
LeftForeArm  30.2097 -23.3657 -3.44101
LeftHand  -0.25398 0.0180481 5.50724
RightShoulder  5.35423 8.97012 36.9167
RightArm  1.30269 -15.8799 37.0395
RightForeArm  -10.469 27.2617 6.40773
RightHand  -1.42116 2.72503 -20.4138
LeftUpLeg  -21.2592 13.3743 -5.4137
LeftLeg  12.1921 3.4874 -0.287253
LeftFoot  -1.81629 0.70174 -8.28497
LeftToes  1.06244e-005 4.65855e-005 -8.18506e-006
1473
root  -2.7638 39.5294 -2.19987 -82.7005 -88.4627 78.7649
RightUpLeg  5.84042 -16.3258 -4.63002
RightLeg  19.796 -8.39236 -0.980012
RightFoot  -20.6105 0.0336962 2.14287
RightToes  0.00048216 0.542163 -0.142577
Spine  18.3174 0.192189 4.80548
Spine1  11.1723 2.06561 -3.85535
HEad  31.2458 16.7583 -3.49193
LeftShoulder1  8.90875 -13.1455 -46.6844
LeftArm  -12.8796 25.2994 -28.595
LeftForeArm  31.6873 -23.5962 -3.40344
LeftHand  -0.25398 0.0180481 5.50724
RightShoulder  5.21566 8.73717 36.6109
RightArm  3.18244 -17.9589 38.0662
RightForeArm  -9.99793 27.6962 6.48982
RightHand  -1.21406 1.88428 -19.4219
LeftUpLeg  -21.0341 12.2549 -5.43371
LeftLeg  18.1836 2.08098 1.29195
LeftFoot  -3.37613 0.531848 -7.32773
LeftToes  1.06244e-005 4.65855e-005 -8.18506e-006
1474
root  -2.20412 39.731 -2.06404 -100.563 -88.3328 97.4433
RightUpLeg  4.53382 -14.6313 -4.50861
RightLeg  18.3554 -9.41711 -0.116395
RightFoot  -19.1084 0.0293298 2.32927
RightToes  0.00048216 0.542163 -0.142577
Spine  17.1428 0.38447 4.93741
Spine1  10.9232 2.43332 -4.26643
HEad  31.4232 15.7651 -3.38803
LeftShoulder1  8.79232 -12.9126 -46.7278
LeftArm  -13.6406 25.9269 -28.1813
LeftForeArm  31.6127 -23.4552 -3.38375
LeftHand  -0.25398 0.0180481 5.50724
RightShoulder  5.13078 8.58508 36.4497
RightArm  5.96675 -20.0929 38.2147
RightForeArm  -8.01983 28.5109 6.59007
RightHand  -0.882004 0.466416 -17.4605
LeftUpLeg  -19.8859 9.53401 -3.68657
LeftLeg  23.2366 4.2709 2.33968
LeftFoot  -4.78798 0.356736 -5.73165
LeftToes  1.06244e-005 4.65855e-005 -8.18506e-006
1475
root  -1.72849 39.873 -1.9048 -130.457 -88.0521 128.23
RightUpLeg  2.82143 -13.5511 -4.19183
RightLeg  17.7232 -9.75063 0.318895
RightFoot  -17.7059 -0.0170431 1.8424
RightToes  0.00048216 0.542163 -0.142577
Spine  15.7676 0.767141 5.24777
Spine1  10.8887 3.02381 -4.59555
HEad  30.8355 14.8537 -3.53309
LeftShoulder1  8.64848 -12.6975 -46.5685
LeftArm  -14.5131 26.3497 -28.2332
LeftForeArm  30.2415 -22.8605 -3.35876
LeftHand  -0.25398 0.0180481 5.50724
RightShoulder  5.15045 8.58841 36.5961
RightArm  8.85961 -21.792 37.7218
RightForeArm  -4.79815 29.1077 6.57227
RightHand  -0.582968 -0.978986 -15.2186
LeftUpLeg  -18.082 8.40477 -2.31257
LeftLeg  27.111 6.53988 3.95097
LeftFoot  -5.65354 0.244785 -4.25287
LeftToes  1.06244e-005 4.65855e-005 -8.18506e-006
1476
root  -1.34186 39.9526 -1.72751 -151.726 -87.7044 150.397
RightUpLeg  1.2665 -12.6816 -3.67926
RightLeg  17.2213 -10.0716 0.707987
RightFoot  -16.6792 -0.0636966 1.05795
RightToes  0.00048216 0.542163 -0.142577
Spine  14.0784 0.934887 5.62291
Spine1  11.088 3.32301 -4.70417
HEad  29.8705 14.1797 -3.54378
LeftShoulder1  8.47141 -12.5338 -46.0666
LeftArm  -15.5711 26.9542 -28.691
LeftForeArm  28.5946 -22.3981 -3.36975
LeftHand  -0.25398 0.0180481 5.50724
RightShoulder  5.17024 8.62283 36.6373
RightArm  11.109 -22.9652 37.4695
RightForeArm  -1.70576 29.0292 6.39089
RightHand  -0.411994 -1.96052 -13.6443
LeftUpLeg  -15.1672 7.8003 -0.971396
LeftLeg  28.9253 7.86594 5.00185
LeftFoot  -7.01592 0.193681 -4.06659
LeftToes  1.06244e-005 4.65855e-005 -8.18506e-006
